<svg width="38" height="40" viewBox="0 0 38 40" fill="none" xmlns="http://www.w3.org/2000/svg">
<path fill-rule="evenodd" clip-rule="evenodd" d="M38 19.8111C38 19.2274 37.857 18.6676 37.6025 18.2548C37.348 17.8421 37.0029 17.6102 36.6429 17.6102H4.63542L13.1767 3.76196C13.3029 3.55733 13.403 3.3144 13.4713 3.04703C13.5396 2.77966 13.5747 2.4931 13.5747 2.20371C13.5747 1.91431 13.5396 1.62775 13.4713 1.36038C13.403 1.09302 13.3029 0.850083 13.1767 0.64545C13.0506 0.440817 12.9008 0.278494 12.7359 0.167747C12.5711 0.0570007 12.3944 0 12.2159 0C12.0375 0 11.8608 0.0570007 11.696 0.167747C11.5311 0.278494 11.3813 0.440817 11.2551 0.64545L0.398686 18.2529C0.272308 18.4573 0.172041 18.7002 0.103628 18.9676C0.0352151 19.235 0 19.5216 0 19.8111C0 20.1006 0.0352151 20.3873 0.103628 20.6547C0.172041 20.9221 0.272308 21.1649 0.398686 21.3694L11.2551 38.9768C11.3813 39.1814 11.5311 39.3438 11.696 39.4545C11.8608 39.5652 12.0375 39.6222 12.2159 39.6222C12.3944 39.6222 12.5711 39.5652 12.7359 39.4545C12.9008 39.3438 13.0506 39.1814 13.1767 38.9768C13.3029 38.7722 13.403 38.5292 13.4713 38.2619C13.5396 37.9945 13.5747 37.7079 13.5747 37.4185C13.5747 37.1291 13.5396 36.8426 13.4713 36.5752C13.403 36.3078 13.3029 36.0649 13.1767 35.8603L4.63542 22.012H36.6429C37.0029 22.012 37.348 21.7802 37.6025 21.3674C37.857 20.9547 38 20.3948 38 19.8111Z" fill="#445172" fill-opacity="0.75"/>
</svg>
